<?xml version="1.0" encoding="UTF-8" standalone="no"?>
<svg
   xmlns:osb="http://www.openswatchbook.org/uri/2009/osb"
   xmlns:dc="http://purl.org/dc/elements/1.1/"
   xmlns:cc="http://creativecommons.org/ns#"
   xmlns:rdf="http://www.w3.org/1999/02/22-rdf-syntax-ns#"
   xmlns:svg="http://www.w3.org/2000/svg"
   xmlns="http://www.w3.org/2000/svg"
   xmlns:xlink="http://www.w3.org/1999/xlink"
   xmlns:sodipodi="http://sodipodi.sourceforge.net/DTD/sodipodi-0.dtd"
   xmlns:inkscape="http://www.inkscape.org/namespaces/inkscape"
   width="210mm"
   height="297mm"
   viewBox="0 0 210 297"
   version="1.1"
   id="svg8"
   sodipodi:docname="desenhoo2.svg"
   inkscape:export-filename="C:\Users\Sarah Kristiny\Desktop\desenho1.png"
   inkscape:export-xdpi="96"
   inkscape:export-ydpi="96"
   inkscape:version="1.0.2-2 (e86c870879, 2021-01-15)">
  <defs
     id="defs2">
    <linearGradient
       id="linearGradient1290"
       osb:paint="solid">
      <stop
         style="stop-color:#000000;stop-opacity:1;"
         offset="0"
         id="stop1288" />
    </linearGradient>
    <linearGradient
       id="linearGradient1284"
       osb:paint="solid">
      <stop
         style="stop-color:#4ca4b3;stop-opacity:1;"
         offset="0"
         id="stop1282" />
    </linearGradient>
    <linearGradient
       id="linearGradient1172"
       osb:paint="solid">
      <stop
         style="stop-color:#000000;stop-opacity:1;"
         offset="0"
         id="stop1170" />
    </linearGradient>
    <linearGradient
       id="linearGradient1164"
       osb:paint="solid">
      <stop
         style="stop-color:#000000;stop-opacity:1;"
         offset="0"
         id="stop1162" />
    </linearGradient>
    <linearGradient
       id="linearGradient1158"
       osb:paint="solid">
      <stop
         style="stop-color:#000000;stop-opacity:1;"
         offset="0"
         id="stop1156" />
    </linearGradient>
    <linearGradient
       id="linearGradient1152"
       osb:paint="solid">
      <stop
         style="stop-color:#66d6e9;stop-opacity:1;"
         offset="0"
         id="stop1150" />
    </linearGradient>
    <linearGradient
       id="linearGradient939"
       osb:paint="solid">
      <stop
         style="stop-color:#000000;stop-opacity:1;"
         offset="0"
         id="stop937" />
    </linearGradient>
    <linearGradient
       inkscape:collect="always"
       xlink:href="#linearGradient939"
       id="linearGradient941"
       x1="-78.531574"
       y1="131.76387"
       x2="96.202465"
       y2="131.76387"
       gradientUnits="userSpaceOnUse"
       gradientTransform="translate(127.75595,272.14286)" />
    <linearGradient
       x1="-163.47"
       y1="104.531"
       x2="-41.1054"
       y2="104.531"
       gradientUnits="userSpaceOnUse"
       xlink:href="#linearGradient1008"
       id="linearGradient1010"
       gradientTransform="translate(731.68703,212.63568)" />
    <linearGradient
       id="linearGradient1008">
      <stop
         offset="0"
         stop-color="#000000"
         stop-opacity="1"
         id="stop1133" />
    </linearGradient>
    <linearGradient
       inkscape:collect="always"
       xlink:href="#linearGradient1152"
       id="linearGradient1154"
       x1="167.10349"
       y1="478.99866"
       x2="206.41301"
       y2="478.99866"
       gradientUnits="userSpaceOnUse"
       gradientTransform="matrix(0.85149202,0,0,0.8836208,-94.382756,-213.60939)" />
    <linearGradient
       inkscape:collect="always"
       xlink:href="#linearGradient1158"
       id="linearGradient1160"
       x1="167.10348"
       y1="478.99866"
       x2="206.41301"
       y2="478.99866"
       gradientUnits="userSpaceOnUse"
       gradientTransform="matrix(0.85149202,0,0,0.8836208,-94.382756,-213.60939)" />
    <linearGradient
       inkscape:collect="always"
       xlink:href="#linearGradient1164"
       id="linearGradient1166"
       x1="54.428581"
       y1="477.00595"
       x2="93.738106"
       y2="477.00595"
       gradientUnits="userSpaceOnUse"
       gradientTransform="matrix(0.60868774,0,0,0.74689795,110.53042,-144.75922)" />
    <linearGradient
       inkscape:collect="always"
       xlink:href="#linearGradient939"
       id="linearGradient1218"
       gradientUnits="userSpaceOnUse"
       gradientTransform="matrix(0.96132606,0,0,0.92035384,100.96653,24.875948)"
       x1="-78.531574"
       y1="131.76387"
       x2="96.202465"
       y2="131.76387" />
    <linearGradient
       inkscape:collect="always"
       xlink:href="#linearGradient1284"
       id="linearGradient1286"
       x1="278.39392"
       y1="403.46912"
       x2="311.16519"
       y2="403.46912"
       gradientUnits="userSpaceOnUse"
       gradientTransform="translate(-186.26836,-254.28337)" />
    <linearGradient
       inkscape:collect="always"
       xlink:href="#linearGradient1290"
       id="linearGradient1292"
       x1="278.39393"
       y1="403.46912"
       x2="311.16519"
       y2="403.46912"
       gradientUnits="userSpaceOnUse"
       gradientTransform="translate(-186.26836,-254.28337)" />
  </defs>
  <sodipodi:namedview
     id="base"
     pagecolor="#ffffff"
     bordercolor="#666666"
     borderopacity="1.0"
     inkscape:pageopacity="0.0"
     inkscape:pageshadow="2"
     inkscape:zoom="0.34232643"
     inkscape:cx="566.45582"
     inkscape:cy="1084.4054"
     inkscape:document-units="mm"
     inkscape:current-layer="layer1"
     inkscape:document-rotation="0"
     showgrid="false"
     inkscape:snap-global="false"
     inkscape:window-width="1902"
     inkscape:window-height="983"
     inkscape:window-x="0"
     inkscape:window-y="0"
     inkscape:window-maximized="0"
     showguides="false" />
  <metadata
     id="metadata5">
    <rdf:RDF>
      <cc:Work
         rdf:about="">
        <dc:format>image/svg+xml</dc:format>
        <dc:type
           rdf:resource="http://purl.org/dc/dcmitype/StillImage" />
        <dc:title></dc:title>
      </cc:Work>
    </rdf:RDF>
  </metadata>
  <g
     inkscape:label="Layer 1"
     id="layer1">
    <path
       id="path943"
       style="opacity:1;fill:url(#linearGradient1154);fill-opacity:1;stroke:url(#linearGradient1160);stroke-width:2.2596;stroke-miterlimit:4;stroke-dasharray:none"
       d="m 81.376276,209.6438 a 16.735873,13.359504 0 0 1 -16.73587,13.3595 16.735873,13.359504 0 0 1 -16.73588,-13.3595 16.735873,13.359504 0 0 1 16.73588,-13.35951 16.735873,13.359504 0 0 1 16.73587,13.35951 z"
       inkscape:label="pe direito" />
    <ellipse
       style="opacity:1;fill:#51d2e9;fill-opacity:1;stroke:url(#linearGradient1166);stroke-width:1.75646;stroke-miterlimit:4;stroke-dasharray:none"
       id="ellipse945"
       cx="155.62404"
       cy="211.51561"
       rx="11.963614"
       ry="11.292386"
       inkscape:label="pe esquedo" />
    <path
       style="fill:#9ea66a;fill-opacity:1;stroke:#000000;stroke-width:1.54476;stroke-linecap:butt;stroke-linejoin:miter;stroke-miterlimit:4;stroke-dasharray:none;stroke-opacity:1"
       d="m 55.199906,85.022598 c -10.03797,8.86665 -17.13467,-14.34729 -9.66989,-33.78997 -14.07789,5.98871 -30.33234,41.92905 -4.85647,48.995162"
       id="path956"
       sodipodi:nodetypes="ccc"
       inkscape:label="chifre esquerdo" />
    <path
       id="path857"
       style="opacity:1;fill:#78d6e6;fill-opacity:1;stroke:url(#linearGradient1218);stroke-width:2.54437;stroke-miterlimit:4;stroke-dasharray:none"
       d="m 183.69899,119.08724 c 8.90067,15.60157 12.35728,37.26423 1.37839,66.07992 -0.003,0.008 -3.51534,7.95157 -5.00355,9.6297 -3.38641,3.8186 -5.50884,6.55524 -8.49509,8.59111 -24.88429,16.96485 -49.53746,22.20972 -65.73049,22.20972 -17.873994,0 -51.641194,-7.12391 -68.492054,-28.0049 -11.36235,-14.07981 -13.49943,-24.52215 -14.25141,-38.31813 -0.69038,-12.6658 2.93795,-24.12124 6.43432,-33.79188 14.36585,-39.734642 43.26151,-58.789802 78.878474,-58.789802 35.61696,1e-5 58.48069,22.94503 75.28141,52.394262 z"
       sodipodi:nodetypes="ssssssssss"
       inkscape:label="mike" />
    <ellipse
       style="fill:#b6ff00;fill-opacity:0.317343;stroke-width:0.264583"
       id="path861"
       cx="-273.13095"
       cy="-76.014595"
       rx="4.0090427"
       ry="2.9399648"
       inkscape:label="path861" />
    <ellipse
       style="opacity:1;fill:#1a1a1a;fill-opacity:1;stroke-width:2.04884;stroke-miterlimit:4;stroke-dasharray:none"
       id="path1176"
       cx="93.453316"
       cy="127.20887"
       rx="9.8524761"
       ry="9.557744" />
    <ellipse
       style="opacity:1;fill:#ffffff;fill-opacity:1;stroke-width:2.342;stroke-miterlimit:4;stroke-dasharray:none"
       id="path1182"
       cx="-36.168175"
       cy="121.37559"
       rx="5.2916665"
       ry="3.96875" />
    <ellipse
       style="fill:#1a1a1a;fill-opacity:1;stroke-width:1.88221;stroke-miterlimit:4;stroke-dasharray:none"
       id="path1176-3"
       cx="129.32576"
       cy="128.55284"
       rx="8.6013727"
       ry="9.2396107" />
    <path
       style="fill:none;stroke:#000000;stroke-width:0.244197px;stroke-linecap:butt;stroke-linejoin:miter;stroke-opacity:1"
       d="m 107.30866,140.54272 c -9.544894,1.66689 -15.089184,9.79692 -15.374244,12.63273 -0.7287,3.0949 9.557664,4.51404 16.715144,4.47891 13.01147,0.56339 17.71186,-1.87311 16.21768,-4.10078 -1.2411,-5.66305 -6.80388,-11.24599 -17.55858,-13.01086 z"
       id="path1266"
       sodipodi:nodetypes="ccccc" />
    <path
       style="opacity:1;fill:url(#linearGradient1286);fill-opacity:1;stroke:url(#linearGradient1292);stroke-width:0.987;stroke-miterlimit:4;stroke-dasharray:none"
       d="m 108.73,157.49406 c -8.795584,-0.14881 -15.435714,-1.53786 -16.441984,-3.43952 -0.32592,-0.61592 -0.17087,-1.42255 0.55077,-2.86522 1.39784,-2.79454 4.15639,-5.69417 7.287024,-7.6597 2.26919,-1.42468 5.67117,-2.6955 7.20035,-2.68971 1.54292,0.006 5.29694,1.08128 7.78907,2.23138 4.74054,2.18771 8.00384,5.51427 9.23887,9.41796 0.15954,0.50426 0.34693,1.06501 0.41641,1.24606 0.0695,0.18108 0.12632,0.48729 0.12632,0.68049 0,0.29631 -0.0643,0.41756 -0.41129,0.77519 -1.19339,1.23004 -4.31285,2.00934 -9.09861,2.27299 -1.44859,0.0798 -3.24009,0.0879 -6.65693,0.0301 z"
       id="path1268" />
    <path
       style="fill:#9ea66a;fill-opacity:1;stroke:#000000;stroke-width:1.55138;stroke-linecap:butt;stroke-linejoin:miter;stroke-miterlimit:4;stroke-dasharray:none;stroke-opacity:1"
       d="m 149.86411,77.263618 c 9.90012,10.47543 32.22593,8.20098 19.21785,-23.01081 5.5352,-1.35097 35.69271,41.27472 0.706,40.63944"
       id="path1270"
       sodipodi:nodetypes="ccc"
       inkscape:label="chifre esquerdo" />
    <path
       style="fill:#008080;stroke:#000000;stroke-width:2.2;stroke-linecap:butt;stroke-linejoin:miter;stroke-miterlimit:4;stroke-dasharray:none;stroke-opacity:1"
       d="m 57.967326,124.0501 c -3.19111,-3.8388 -3.34307,-11.35906 -0.77289,-16.23087 13.52571,-12.816132 29.75657,-17.584252 43.282284,-17.003732 4.09876,2.85494 6.48243,12.665242 5.02383,21.641122 -14.785404,-9.90427 -31.688814,7.72899 -47.533224,11.59348 z"
       id="path1276"
       sodipodi:nodetypes="ccccc"
       inkscape:label="s.esquerda" />
    <path
       style="fill:#008080;stroke:#000000;stroke-width:2.2;stroke-linecap:butt;stroke-linejoin:miter;stroke-miterlimit:4;stroke-dasharray:none;stroke-opacity:1"
       d="m 160.17894,123.66365 c 3.19111,-3.8388 3.34307,-11.35906 0.77289,-16.23087 -13.52571,-12.816132 -29.75657,-17.584252 -43.28228,-17.003732 -4.09876,2.85494 -6.48243,12.665242 -5.02383,21.641122 5.80289,-3.88718 11.93204,-3.53257 18.19537,-1.43337 9.69523,3.24942 19.71197,10.67907 29.33785,13.02685 z"
       id="path1278"
       sodipodi:nodetypes="ccccsc"
       inkscape:label="s.direita" />
    <path
       style="fill:#008080;stroke:#000000;stroke-width:2.2;stroke-linecap:butt;stroke-linejoin:miter;stroke-miterlimit:4;stroke-dasharray:none;stroke-opacity:0.95"
       d="m 57.967326,124.0501 c -3.19111,-3.8388 -3.34307,-11.35906 -0.77289,-16.23087 13.52571,-12.816132 29.75657,-17.584252 43.282284,-17.003732 4.09876,2.85494 6.48243,12.665242 5.02383,21.641122 -14.785404,-9.90427 -31.688814,7.72899 -47.533224,11.59348 z"
       id="path1280"
       sodipodi:nodetypes="ccccc"
       inkscape:label="s.esquerda" />
  </g>
</svg>
